HIERARCHY
ROOT Hips
{
   OFFSET 0.00000 0.00000 0.00000
   CHANNELS 6 Xposition Yposition Zposition Zrotation Xrotation Yrotation
   JOINT RightUpLeg
   {
      OFFSET -9.840380 -9.533777 0.111817
      CHANNELS 3 Zrotation Xrotation Yrotation
      JOINT RightLeg
      {
         OFFSET 0.000000 -48.864969 1.509970
         CHANNELS 3 Zrotation Xrotation Yrotation
         JOINT RightFoot
         {
            OFFSET 0.278904 -46.301641 -1.606649
            CHANNELS 3 Zrotation Xrotation Yrotation
            JOINT RightToes
            {
               OFFSET 0.044000 -4.856599 9.349010
               CHANNELS 3 Zrotation Xrotation Yrotation
               End Site
               {
                  OFFSET -0.088000 -0.151193 10.757769
               }
            }
         }
      }
   }
   JOINT Spine
   {
      OFFSET 0.000000 13.079551 0.000000
      CHANNELS 3 Zrotation Xrotation Yrotation
      JOINT Spine1
      {
         OFFSET 0.000000 28.223142 0.140429
         CHANNELS 3 Zrotation Xrotation Yrotation
         JOINT HEad
         {
            OFFSET 0.000000 9.607577 0.012475
            CHANNELS 3 Zrotation Xrotation Yrotation
            End Site
            {
               OFFSET -0.319000 14.051621 2.765345
            }
         }
         JOINT LeftShoulder1
         {
            OFFSET 9.889000 -0.398477 -0.242000
            CHANNELS 3 Zrotation Xrotation Yrotation
            JOINT LeftArm
            {
               OFFSET 11.310971 -0.003718 0.354335
               CHANNELS 3 Zrotation Xrotation Yrotation
               JOINT LeftForeArm
               {
                  OFFSET 36.043591 0.109058 -1.566774
                  CHANNELS 3 Zrotation Xrotation Yrotation
                  JOINT LeftHand
                  {
                     OFFSET 30.320732 0.093898 1.124376
                     CHANNELS 3 Zrotation Xrotation Yrotation
                     End Site
                     {
                        OFFSET 18.418731 -0.660000 1.653201
                     }
                  }
               }
            }
         }
         JOINT RightShoulder
         {
            OFFSET -9.889000 -0.398477 -0.242000
            CHANNELS 3 Zrotation Xrotation Yrotation
            JOINT RightArm
            {
               OFFSET -11.310971 -0.003718 0.354335
               CHANNELS 3 Zrotation Xrotation Yrotation
               JOINT RightForeArm
               {
                  OFFSET -36.186809 0.109058 -1.566774
                  CHANNELS 3 Zrotation Xrotation Yrotation
                  JOINT RightHand
                  {
                     OFFSET -30.241313 0.093898 1.124376
                     CHANNELS 3 Zrotation Xrotation Yrotation
                     End Site
                     {
                        OFFSET -18.294322 -0.660000 1.653201
                     }
                  }
               }
            }
         }
      }
   }
   JOINT LeftUpLeg
   {
      OFFSET 9.840380 -9.533777 0.111817
      CHANNELS 3 Zrotation Xrotation Yrotation
      JOINT LeftLeg
      {
         OFFSET 0.000000 -48.864969 1.509970
         CHANNELS 3 Zrotation Xrotation Yrotation
         JOINT LeftFoot
         {
            OFFSET -0.278904 -46.301641 -1.606649
            CHANNELS 3 Zrotation Xrotation Yrotation
            JOINT LeftToes
            {
               OFFSET -0.044000 -4.856599 9.349010
               CHANNELS 3 Zrotation Xrotation Yrotation
               End Site
               {
                  OFFSET 0.088000 -0.052193 10.757769
               }
            }
         }
      }
   }
}
MOTION
Frames: 13
Frame Time: 0.016667
-138.113506 60.938767 287.872444 -3.952119 -17.803344 -52.265922 -4.761569 -28.975770 -2.754071 -143.615738 56.976314 134.722845 86.699949 1.634285 11.486186 -1.597677 -6.088350 -17.175279 -12.893252 13.230341 123.766511 47.563228 -17.349481 -118.145334 -33.960510 -25.862602 29.210650 58.157551 65.297722 -74.089316 120.246669 -66.666335 79.799101 64.403254 -0.743758 -14.673068 -107.308009 -60.044630 -155.437046 57.415028 346.652728 39.091437 -2.716716 29.618989 429.856425 -41.357130 10.506033 77.835367 -41.664690 41.013343 6.967842 50.632930 -31.257118 90.919250 39.203766 35.661152 78.068318 -44.676981 119.424054 30.254159 48.509885 -56.454594 -76.972086
-138.722160 62.856406 287.476326 -0.516846 -16.275159 -48.885296 -4.908089 -29.542525 -3.518007 -141.862018 59.802035 130.951515 87.013366 0.539560 12.560408 -1.848030 -6.827318 -16.750373 -13.916979 11.430820 122.692737 47.897105 -18.106975 -118.469822 -34.915285 -23.495204 29.260203 59.206580 66.205536 -75.286914 121.019477 -66.037308 79.597010 63.810475 0.289747 -13.475924 -107.952554 -60.417757 -153.521165 60.068392 345.290296 39.820225 -0.338634 30.550558 429.241135 -42.130461 11.403662 76.985603 -42.537810 40.328125 8.435745 50.270510 -32.614580 90.725300 34.323377 40.009725 75.863779 -43.980698 119.639315 26.825513 49.489833 -58.117192 -79.106623
-139.339483 64.618415 287.393966 3.181064 -15.864023 -45.568338 -5.603212 -29.653939 -2.964042 -141.964498 63.726205 127.576882 86.412309 -1.247827 13.128832 -2.177472 -7.858930 -16.579115 -13.569450 9.353474 121.834374 48.268383 -18.142874 -119.475076 -35.264468 -19.636478 28.705028 60.227461 65.920198 -79.163812 122.539550 -64.620563 77.309012 62.502679 0.118217 -13.086823 -108.139093 -61.366825 -151.387878 62.513115 344.796665 41.207942 3.430084 31.674435 426.582798 -42.147260 13.768629 76.626239 -43.822244 39.167033 10.239961 46.999252 -33.614096 89.432325 30.029698 43.211544 73.387596 -41.142625 119.377117 23.355745 50.138199 -58.183957 -80.250570
-139.950865 66.374115 287.426887 4.510718 -16.116340 -43.790095 -8.055869 -29.125347 -3.965546 -141.291001 66.986452 126.003166 84.958046 -1.454107 12.638967 -2.251091 -7.863811 -16.829858 -13.245881 9.709799 123.286185 46.927996 -20.060535 -119.764977 -34.927354 -14.238460 27.570675 62.743252 65.932205 -84.099860 124.217468 -63.117361 74.820563 61.367870 0.914981 -13.693056 -107.711783 -62.109369 -149.440673 63.773852 340.793573 43.132583 8.778619 32.097135 424.655428 -45.645092 18.546335 71.813026 -45.320450 37.374402 12.848409 42.834411 -34.678096 91.205579 32.672691 40.837807 66.943538 -42.286835 117.039403 20.385811 49.626123 -56.644053 -79.574771
-140.413893 67.978953 287.502800 3.307353 -16.876959 -42.680800 -10.458835 -27.120552 -6.247140 -141.060099 69.979461 125.585500 82.642106 -1.156096 10.998731 -2.270009 -7.701047 -17.638229 -12.275008 11.378854 125.861398 47.309985 -19.751136 -119.017153 -33.586123 -9.832605 24.838123 65.053481 64.797014 -86.201256 124.703941 -62.930815 74.208912 60.530905 1.020684 -14.111695 -106.346045 -63.184441 -148.412743 64.726738 337.061120 43.751781 14.947620 31.909910 421.277325 -45.111378 21.841285 72.283107 -47.066171 35.322474 15.555300 38.889250 -34.162410 95.201649 36.681613 36.369101 62.260651 -42.919088 113.289971 18.738308 48.085146 -53.797275 -77.380907
-140.806530 69.821257 287.536083 0.654038 -16.734810 -43.290982 -11.595211 -25.507965 -9.259771 -141.026167 73.983059 126.123036 79.573090 -0.679599 9.050180 -2.386643 -7.775320 -18.515355 -12.477745 13.771837 128.181846 49.629295 -19.250581 -117.267805 -32.061038 -2.052709 20.333611 67.452271 60.266031 -85.514747 125.387247 -62.935282 74.188005 59.921912 -0.520429 -14.974949 -103.689997 -64.674283 -149.184896 67.102572 333.088628 41.846745 21.677106 29.312085 420.336617 -42.936297 25.359266 74.957194 -48.637197 32.783047 19.766419 36.717188 -33.148773 97.390233 39.127903 32.866621 59.123818 -46.227499 108.130583 15.063429 46.635261 -52.481753 -76.336052
-141.236656 71.690782 287.684951 -0.375477 -17.069379 -42.258432 -13.018599 -24.021724 -10.695499 -141.276166 75.864059 127.209896 77.641704 -0.309299 7.731755 -2.522061 -7.766526 -19.109314 -12.914556 16.313731 130.531759 49.217127 -20.450640 -116.681788 -29.993266 1.603243 16.255364 70.634367 58.212063 -85.345194 125.776581 -62.929941 74.875375 59.383447 -0.195639 -14.622663 -102.403483 -66.303331 -147.172258 68.359122 328.478851 40.737676 28.620250 27.271098 418.904763 -41.895673 30.141557 76.461434 -48.478606 30.977626 24.438304 32.915522 -32.724051 96.928123 39.157601 30.160237 56.914904 -49.622899 102.969815 11.197850 45.914208 -51.656632 -76.474343
-141.788090 73.617038 287.861095 -0.996736 -18.313991 -41.892593 -13.740885 -20.037480 -9.031178 -142.015875 79.173907 128.342970 76.463483 -0.977149 8.809867 -2.941351 -8.309742 -18.502320 -13.903564 13.900734 131.639042 49.221205 -23.777753 -115.336815 -27.617969 1.920470 12.608694 73.899723 56.063873 -86.064202 125.752348 -62.978948 76.838508 59.390441 -0.118846 -12.168625 -100.653281 -68.624229 -144.891753 70.540821 322.361050 41.864794 35.533103 30.140689 417.184348 -42.176346 33.625294 76.186553 -47.785376 29.603119 29.173264 28.547336 -30.257731 93.859824 37.747331 27.437222 55.828262 -50.715473 99.748335 9.362670 46.326738 -49.945526 -77.558335
-142.332771 75.747808 287.811161 1.867528 -18.734932 -39.533780 -14.106561 -19.383203 -5.715593 -144.295683 82.620249 129.771395 75.386068 -2.439632 9.793422 -3.504331 -9.314482 -18.062287 -11.837707 14.403757 131.375123 48.041280 -22.055367 -116.907895 -25.420122 2.790955 9.100584 73.223548 52.359885 -86.286961 125.988522 -62.365453 77.353204 58.809698 -3.663773 -13.578243 -96.895871 -71.773007 -145.150194 71.963133 313.208979 41.278590 43.358314 31.081886 417.892311 -42.157908 36.263155 76.711869 -47.427174 27.727436 35.021136 25.145154 -30.524020 92.726798 34.155420 27.871704 54.021571 -51.986892 96.928697 7.359847 46.883597 -49.141579 -79.159925
-142.617967 77.704886 287.803894 1.737261 -16.655939 -39.346968 -12.968857 -19.371332 -4.328577 -148.531725 85.837064 134.472546 74.335011 -2.945330 10.262700 -3.835802 -9.315259 -17.867169 -11.057788 15.072470 132.190634 45.869672 -21.569167 -118.511965 -23.206853 2.297977 5.841062 72.474584 52.561140 -85.148697 125.106212 -62.623457 75.757945 58.570464 -4.098036 -13.764931 -94.161903 -74.189720 -142.670603 69.179769 307.785154 36.083828 51.504168 27.212580 415.629715 -37.924502 40.611120 79.508217 -44.433843 26.495817 39.756233 24.758696 -31.383244 91.038758 33.479374 26.644047 55.088279 -52.793770 94.196956 7.520571 46.378962 -47.855857 -78.892448
-142.772024 79.621190 287.783103 1.061378 -14.166840 -39.487653 -11.403684 -20.233575 -4.134664 90.492801 89.693279 -104.757876 73.096848 -3.464000 9.283945 -3.999642 -8.789369 -18.500076 -8.619070 15.770241 135.196573 45.529918 -22.421510 -118.601918 -20.525364 1.352335 2.744947 70.717525 53.656723 -80.807408 122.890403 -64.988198 74.292589 58.184093 -4.586204 -15.301075 -91.389919 -76.366214 -139.104070 68.349443 304.452595 28.576644 59.744471 28.322498 415.807764 -34.823713 43.534068 78.968229 -40.350650 26.121229 43.355288 25.442409 -33.929214 89.049923 33.756899 25.797592 57.098073 -54.216925 91.001978 7.784461 45.244078 -47.225571 -78.026032
-142.743528 81.655883 287.723289 -1.345262 -10.202942 -38.909853 -7.091303 -20.923772 -3.777907 85.575133 89.627170 -99.059340 72.014776 -3.332222 8.055996 -4.024870 -7.666840 -18.962289 -8.230795 14.083837 139.400377 42.098185 -22.729826 -118.745147 -17.620054 2.257295 0.178447 67.498737 53.452873 -77.761499 121.685448 -66.215740 70.856915 56.622562 -5.236529 -18.808140 -89.099620 -72.594044 -134.557281 63.740329 299.628350 20.001818 67.392151 24.792846 410.237636 -25.411651 45.326648 81.242614 -28.527747 24.981608 42.304378 27.327162 -35.805877 86.436344 34.275692 24.904886 58.332862 -54.783701 87.618363 7.110085 44.080408 -47.278378 -77.748631
-142.551239 83.507317 287.376781 -1.963802 -8.146559 -40.112219 -4.613829 -21.884013 -0.935724 26.633705 84.314983 -39.945292 71.208369 -4.271941 7.062173 -4.049864 -6.598894 -19.083936 -5.160947 12.714572 141.516315 41.421238 -20.311333 -117.613248 -15.913695 8.384827 -1.653439 63.767165 50.412284 -73.873168 119.508995 -67.990865 67.174159 55.754189 -5.390393 -20.168254 -88.126352 -66.223793 -130.314641 59.840435 289.772387 12.512939 77.110985 23.551158 401.389126 -19.452063 47.538192 80.184051 -14.071070 22.007810 38.347967 27.930817 -36.607751 84.065599 34.708754 25.057522 59.247513 -55.452694 83.708906 6.119851 42.707482 -47.851855 -77.621610
